<svg width="29" height="8" viewBox="0 0 29 8" fill="none" xmlns="http://www.w3.org/2000/svg">
<path d="M5.39485 0.26362C5.72955 -0.0878735 6.27312 -0.0878735 6.60783 0.26362L11.749 5.66257C12.0837 6.01406 12.0837 6.58489 11.749 6.93638C11.4143 7.28787 10.8707 7.28787 10.536 6.93638L6 2.17293L1.46402 6.93357C1.12931 7.28506 0.585741 7.28506 0.251032 6.93357C-0.0836773 6.58207 -0.0836773 6.01125 0.251032 5.65975L5.39217 0.260808L5.39485 0.26362Z" fill="#CCCCCC"/>
<path d="M23.6052 6.93633C23.2704 7.28782 22.7269 7.28782 22.3922 6.93633L17.251 1.53739C16.9163 1.18589 16.9163 0.615066 17.251 0.263572C17.5857 -0.087922 18.1293 -0.087922 18.464 0.263572L23 5.02702L27.536 0.266384C27.8707 -0.0851102 28.4143 -0.0851102 28.749 0.266384C29.0837 0.617877 29.0837 1.1887 28.749 1.5402L23.6078 6.93914L23.6052 6.93633Z" fill="#CCCCCC"/>
</svg>
