<svg width="35" height="15" viewBox="0 0 35 15" fill="none" xmlns="http://www.w3.org/2000/svg">
<path d="M7.5 0.000244141C3.35789 0.000244141 0 3.35813 0 7.50024C0 11.6426 3.35789 15.0002 7.5 15.0002C11.6423 15.0002 15 11.6426 15 7.50024C15 3.35813 11.6423 0.000244141 7.5 0.000244141ZM7.5 14.0775C3.88148 14.0775 0.9375 11.1188 0.9375 7.50021C0.9375 3.8817 3.88148 0.937715 7.5 0.937715C11.1185 0.937715 14.0625 3.88171 14.0625 7.50021C14.0625 11.1187 11.1185 14.0775 7.5 14.0775ZM10.4932 4.75595L6.0928 9.18399L4.11116 7.20235C3.92811 7.01931 3.63139 7.01931 3.44811 7.20235C3.26506 7.3854 3.26506 7.68212 3.44811 7.86517L5.76819 10.1855C5.95124 10.3683 6.24795 10.3683 6.43124 10.1855C6.45233 10.1644 6.47039 10.1414 6.4868 10.1175L11.1565 5.41898C11.3393 5.23593 11.3393 4.93921 11.1565 4.75595C10.9732 4.5729 10.6765 4.5729 10.4932 4.75595Z" fill="#999999"/>
<circle cx="27.5" cy="7.50024" r="7.5" fill="#12C39A"/>
<path d="M27.5 0.000244141C23.3579 0.000244141 20 3.35813 20 7.50024C20 11.6426 23.3579 15.0002 27.5 15.0002C31.6423 15.0002 35 11.6426 35 7.50024C35 3.35813 31.6423 0.000244141 27.5 0.000244141ZM27.5 14.0775C23.8815 14.0775 20.9375 11.1188 20.9375 7.50021C20.9375 3.8817 23.8815 0.937715 27.5 0.937715C31.1185 0.937715 34.0625 3.88171 34.0625 7.50021C34.0625 11.1187 31.1185 14.0775 27.5 14.0775ZM30.4932 4.75595L26.0928 9.18399L24.1112 7.20235C23.9281 7.01931 23.6314 7.01931 23.4481 7.20235C23.2651 7.3854 23.2651 7.68212 23.4481 7.86517L25.7682 10.1855C25.9512 10.3683 26.248 10.3683 26.4312 10.1855C26.4523 10.1644 26.4704 10.1414 26.4868 10.1175L31.1565 5.41898C31.3393 5.23593 31.3393 4.93921 31.1565 4.75595C30.9732 4.5729 30.6765 4.5729 30.4932 4.75595Z" fill="white"/>
<path d="M27.5 0.000244141C23.3579 0.000244141 20 3.35813 20 7.50024C20 11.6426 23.3579 15.0002 27.5 15.0002C31.6423 15.0002 35 11.6426 35 7.50024C35 3.35813 31.6423 0.000244141 27.5 0.000244141ZM27.5 14.0775C23.8815 14.0775 20.9375 11.1188 20.9375 7.50021C20.9375 3.8817 23.8815 0.937715 27.5 0.937715C31.1185 0.937715 34.0625 3.88171 34.0625 7.50021C34.0625 11.1187 31.1185 14.0775 27.5 14.0775ZM30.4932 4.75595L26.0928 9.18399L24.1112 7.20235C23.9281 7.01931 23.6314 7.01931 23.4481 7.20235C23.2651 7.3854 23.2651 7.68212 23.4481 7.86517L25.7682 10.1855C25.9512 10.3683 26.248 10.3683 26.4312 10.1855C26.4523 10.1644 26.4704 10.1414 26.4868 10.1175L31.1565 5.41898C31.3393 5.23593 31.3393 4.93921 31.1565 4.75595C30.9732 4.5729 30.6765 4.5729 30.4932 4.75595Z" fill="white"/>
<path d="M27.5 0C23.3579 0 20 3.35789 20 7.5C20 11.6423 23.3579 15 27.5 15C31.6423 15 35 11.6423 35 7.5C35 3.35789 31.6423 0 27.5 0ZM27.5 14.0773C23.8815 14.0773 20.9375 11.1185 20.9375 7.49997C20.9375 3.88145 23.8815 0.937471 27.5 0.937471C31.1185 0.937471 34.0625 3.88147 34.0625 7.49997C34.0625 11.1185 31.1185 14.0773 27.5 14.0773Z" fill="#12C39A"/>
</svg>
