<svg width="114" height="23" viewBox="0 0 114 23" fill="none" xmlns="http://www.w3.org/2000/svg">
<path d="M10 0C9.20974 0 8.57129 0.628634 8.57129 1.40673V2.25077C5.31203 2.90139 2.85643 5.74123 2.85643 9.14377V10.2604C2.85643 12.2562 2.1644 14.1948 0.900877 15.751L0.235632 16.5731C-0.023322 16.8896 -0.0724341 17.3248 0.106155 17.6897C0.284744 18.0546 0.659782 18.2875 1.07054 18.2875H18.9295C19.3402 18.2875 19.7153 18.0546 19.8938 17.6897C20.0724 17.3248 20.0233 16.8896 19.7644 16.5731L19.0991 15.7554C17.8356 14.1948 17.1436 12.2562 17.1436 10.2604V9.14377C17.1436 5.74123 14.688 2.90139 11.4287 2.25077V1.40673C11.4287 0.628634 10.7903 0 10 0ZM10 4.2202C12.7637 4.2202 15.0005 6.42262 15.0005 9.14377V10.2604C15.0005 12.3661 15.6211 14.419 16.773 16.1774H3.227C4.3789 14.419 4.9995 12.3661 4.9995 10.2604V9.14377C4.9995 6.42262 7.23633 4.2202 10 4.2202ZM12.8574 19.6943H10H7.14257C7.14257 20.4416 7.44171 21.1582 7.97748 21.6857C8.51324 22.2132 9.241 22.5077 10 22.5077C10.759 22.5077 11.4868 22.2132 12.0225 21.6857C12.5583 21.1582 12.8574 20.4416 12.8574 19.6943Z" fill="#333333"/>
<path d="M47.9996 3.37686H31.0117L30.6481 1.54679C30.5562 1.08468 30.1449 0.751221 29.6667 0.751221H25.5C25.2239 0.751221 25 0.971651 25 1.24353V2.22814C25 2.50002 25.2239 2.72045 25.5 2.72045H28.8433L31.7431 17.3133C31.2832 17.7851 31 18.4251 31 19.1307C31 20.5808 32.1939 21.7563 33.6667 21.7563C35.1394 21.7563 36.3333 20.5808 36.3333 19.1307C36.3338 18.6697 36.2105 18.2168 35.9757 17.8179H42.0243C41.7896 18.2168 41.6662 18.6697 41.6667 19.1307C41.6667 20.5808 42.8606 21.7563 44.3334 21.7563C45.8061 21.7563 47 20.5808 47 19.1307C47 18.3867 46.6852 17.7155 46.1802 17.2377L46.2233 17.0425C46.3589 16.4288 45.8841 15.8487 45.2462 15.8487H33.49L33.0987 13.8794H46.1156C46.586 13.8794 46.9929 13.5566 47.0928 13.104L48.9768 4.57063C49.1123 3.95692 48.6375 3.37686 47.9996 3.37686ZM33.6667 20.1153C33.1152 20.1153 32.6667 19.6736 32.6667 19.1307C32.6667 18.5878 33.1152 18.1461 33.6667 18.1461C34.2181 18.1461 34.6667 18.5878 34.6667 19.1307C34.6667 19.6736 34.2181 20.1153 33.6667 20.1153ZM44.3333 20.1153C43.7819 20.1153 43.3333 19.6736 43.3333 19.1307C43.3333 18.5878 43.7819 18.1461 44.3333 18.1461C44.8847 18.1461 45.3333 18.5878 45.3333 19.1307C45.3333 19.6736 44.8847 20.1153 44.3333 20.1153ZM45.3099 11.9102H32.7075L31.4029 5.34609H46.7591L45.3099 11.9102Z" fill="#333333"/>
<path d="M59.3948 14.961C59.7296 15.3515 60.2731 15.3515 60.6078 14.961L65.749 8.96217C66.0837 8.57162 66.0837 7.93737 65.749 7.54682C65.4143 7.15627 64.8707 7.15627 64.536 7.54682L60 12.8395L55.464 7.54994C55.1293 7.15939 54.5857 7.15939 54.251 7.54994C53.9163 7.94049 53.9163 8.57474 54.251 8.96529L59.3922 14.9641L59.3948 14.961Z" fill="#333333"/>
<path d="M92.0476 10.2771H74.2513L78.4978 5.92133C78.8698 5.53998 78.8698 4.92137 78.4978 4.54008C78.1258 4.15851 77.5227 4.15851 77.1512 4.54008L71.279 10.5632C70.907 10.9445 70.907 11.5632 71.279 11.9444L77.1512 17.9678C77.3371 18.1586 77.5808 18.2539 77.8245 18.2539C78.0681 18.2539 78.3118 18.1586 78.4978 17.9678C78.8698 17.5864 78.8698 16.9678 78.4978 16.5866L74.2513 12.2306H92.0476C92.5735 12.2306 93 11.7932 93 11.2538C93 10.7144 92.5736 10.2771 92.0476 10.2771Z" fill="#999999"/>
<path d="M103.927 3.25391C105.499 3.25391 107.007 3.88003 108.118 4.99453C109.23 6.10903 109.854 7.62062 109.854 9.19676C109.854 10.6688 109.316 12.0219 108.432 13.0642L108.678 13.311H109.398L113.957 17.8825L112.59 19.2539L108.03 14.6825V13.9602L107.784 13.7133C106.745 14.6002 105.395 15.1396 103.927 15.1396C102.355 15.1396 100.848 14.5135 99.736 13.399C98.6245 12.2845 98 10.7729 98 9.19676C98 7.62062 98.6245 6.10903 99.736 4.99453C100.848 3.88003 102.355 3.25391 103.927 3.25391V3.25391ZM103.927 5.08248C101.647 5.08248 99.8237 6.91105 99.8237 9.19676C99.8237 11.4825 101.647 13.311 103.927 13.311C106.207 13.311 108.03 11.4825 108.03 9.19676C108.03 6.91105 106.207 5.08248 103.927 5.08248Z" fill="#999999"/>
</svg>
