<svg width="87" height="19" viewBox="0 0 87 19" fill="none" xmlns="http://www.w3.org/2000/svg">
<path d="M5.54404 4.85152C5.44367 4.6367 5.23157 4.5 4.99864 4.5C4.76571 4.5 4.5555 4.6367 4.45324 4.85152L3.23557 7.43522L0.516165 7.84923C0.288917 7.88439 0.0995432 8.04843 0.029475 8.27302C-0.0405933 8.4976 0.0162188 8.74562 0.17908 8.91162L2.15235 10.9251L1.68649 13.7704C1.64862 14.0048 1.74331 14.243 1.93079 14.3817C2.11827 14.5204 2.36635 14.5379 2.57087 14.4266L5.00053 13.0889L7.4302 14.4266C7.63472 14.5379 7.8828 14.5223 8.07028 14.3817C8.25776 14.2411 8.35245 14.0048 8.31457 13.7704L7.84682 10.9251L9.82009 8.91162C9.98295 8.74562 10.0417 8.4976 9.9697 8.27302C9.89774 8.04843 9.71026 7.88439 9.48301 7.84923L6.76171 7.43522L5.54404 4.85152Z" fill="#FFB600"/>
<path d="M15 18V16.9375C15 14.965 15.7375 13.0732 17.0503 11.6784C18.363 10.2836 20.1435 9.5 22 9.5M22 9.5C23.8565 9.5 25.637 10.2836 26.9497 11.6784C28.2625 13.0732 29 14.965 29 16.9375V18M22 9.5C23.0609 9.5 24.0783 9.05223 24.8284 8.2552C25.5786 7.45817 26 6.37717 26 5.25C26 4.12283 25.5786 3.04183 24.8284 2.2448C24.0783 1.44777 23.0609 1 22 1C20.9391 1 19.9217 1.44777 19.1716 2.2448C18.4214 3.04183 18 4.12283 18 5.25C18 6.37717 18.4214 7.45817 19.1716 8.2552C19.9217 9.05223 20.9391 9.5 22 9.5Z" stroke="#333333" stroke-width="1.5" stroke-linecap="round" stroke-linejoin="round"/>
<path d="M41.5 17C45.5957 17 49 13.6029 49 9.5C49 5.40427 45.6029 2 41.5072 2C41.1176 2 40.9265 2.2353 40.9265 2.61742V5.47047C40.9265 5.78671 41.1398 6.04396 41.463 6.04396C41.7867 6.04396 42.0073 5.78671 42.0073 5.47047V3.27186C45.2428 3.52911 47.7426 6.20585 47.7426 9.5C47.746 10.3211 47.5869 11.1347 47.2745 11.8941C46.962 12.6534 46.5025 13.3434 45.9222 13.9244C45.3419 14.5054 44.6525 14.9658 43.8935 15.2791C43.1346 15.5924 42.3211 15.7525 41.5 15.7501C38.0292 15.7501 35.2427 12.9705 35.2499 9.5C35.2571 7.95583 35.8086 6.55158 36.7279 5.47047C36.9556 5.18372 36.9704 4.8383 36.7279 4.58073C36.485 4.31626 36.0734 4.33822 35.8086 4.6692C34.6836 5.97777 34 7.66908 34 9.5C34 13.6029 37.3971 17 41.5 17ZM42.6765 10.6322C43.2572 10.0293 43.1399 9.20572 42.4412 8.7207L38.551 6.00726C38.1836 5.75 37.8011 6.13244 38.0584 6.49981L40.7718 10.3897C41.2572 11.0884 42.0807 11.2133 42.6765 10.6322Z" fill="#333333"/>
<path d="M62.8539 2.58689C61.8094 2.2464 60.7184 2.93675 60.4203 4.13002L60.2645 4.75476C60.1633 5.16085 59.9801 5.5357 59.7313 5.84807L58.3285 7.60985C58.0852 7.91598 58.1043 8.39079 58.3723 8.6688C58.6402 8.94681 59.0559 8.92495 59.2992 8.61882L60.702 6.85703C61.0875 6.37286 61.3691 5.79497 61.525 5.16709L61.6809 4.54235C61.7793 4.14563 62.143 3.91448 62.493 4.02693C62.843 4.13939 63.0426 4.55484 62.9441 4.95468L62.7883 5.57943C62.6324 6.20105 62.3863 6.78831 62.0609 7.3131C61.9187 7.54113 61.9023 7.84101 62.0145 8.09091C62.1266 8.34081 62.3508 8.49699 62.5969 8.49699H66.25C66.4906 8.49699 66.6875 8.7219 66.6875 8.99679C66.6875 9.20921 66.5699 9.39351 66.4031 9.46535C66.2008 9.55282 66.0477 9.74649 65.9957 9.98702C65.9438 10.2275 65.9984 10.4806 66.1406 10.6649C66.209 10.7523 66.25 10.8679 66.25 10.996C66.25 11.2396 66.0969 11.4427 65.8945 11.4864C65.6703 11.5364 65.4816 11.7144 65.4023 11.9612C65.323 12.208 65.3586 12.4829 65.5008 12.689C65.5582 12.7734 65.5938 12.8796 65.5938 12.9983C65.5938 13.2076 65.4789 13.3919 65.3148 13.4637C65.0004 13.6043 64.8309 13.9916 64.9211 14.3634C64.932 14.404 64.9375 14.4508 64.9375 14.4977C64.9375 14.7726 64.7406 14.9975 64.5 14.9975H61.834C61.4895 14.9975 61.1504 14.8819 60.8633 14.6632L59.1762 13.3794C58.8754 13.1482 58.468 13.2419 58.2656 13.5887C58.0633 13.9354 58.1453 14.3977 58.4488 14.6289L60.1359 15.9127C60.6391 16.297 61.2297 16.5 61.834 16.5H64.5C65.4488 16.5 66.2199 15.6378 66.25 14.5633C66.6492 14.1978 66.9062 13.6355 66.9062 13.0014C66.9062 12.8609 66.8926 12.7265 66.8707 12.5953C67.2918 12.2299 67.5625 11.652 67.5625 11.0022C67.5625 10.7992 67.5352 10.6024 67.4859 10.4181C67.8031 10.0495 68 9.54969 68 8.99679C68 7.89411 67.218 6.9976 66.25 6.9976H63.7262C63.8547 6.67273 63.9641 6.33537 64.0488 5.99176L64.2047 5.36701C64.5027 4.17375 63.8984 2.92738 62.8539 2.58689ZM54.875 7.4974C54.391 7.4974 54 7.94409 54 8.49699V15.4942C54 16.0471 54.391 16.4938 54.875 16.4938H56.625C57.109 16.4938 57.5 16.0471 57.5 15.4942V8.49699C57.5 7.94409 57.109 7.4974 56.625 7.4974H54.875Z" fill="#999999"/>
<path d="M77.5965 13.5257C77.1866 13.357 76.7302 13.4288 76.3777 13.7256C76.1536 13.9131 75.7683 14.188 75.301 14.4348C75.454 13.9756 75.5715 13.4569 75.6098 12.8914C75.6371 12.4884 75.5196 12.0885 75.2873 11.7823C74.6506 10.9606 74.3117 9.99833 74.3117 8.99855C74.3117 6.51473 76.5881 3.99967 79.9959 3.99967C83.4037 3.99967 85.6801 6.51473 85.6801 8.99855C85.6801 11.4824 83.4037 13.9974 79.9959 13.9974C79.1323 13.9974 78.3207 13.8256 77.5965 13.5257ZM73.7187 14.741C73.675 14.8254 73.6285 14.9097 73.5793 14.9941L73.5711 15.0097C73.5274 15.0816 73.4837 15.1534 73.44 15.2253C73.3443 15.3721 73.2405 15.5158 73.1312 15.6471C73.0055 15.7908 72.9699 16.0032 73.0383 16.1907C73.1066 16.3782 73.2651 16.5 73.4427 16.5C73.5821 16.5 73.7215 16.4906 73.8608 16.475L73.88 16.4719C74.0002 16.4563 74.1204 16.4375 74.2407 16.4125C74.2625 16.4094 74.2844 16.4031 74.3063 16.3969C74.7927 16.2875 75.26 16.1001 75.6754 15.8939C76.3012 15.5815 76.8341 15.2097 77.1593 14.9378C78.0283 15.2971 78.9902 15.4971 80.0041 15.4971C83.8682 15.4971 87 12.5884 87 8.99855C87 5.40873 83.86 2.5 79.9959 2.5C76.1318 2.5 73 5.40873 73 8.99855C73 10.4076 73.4837 11.7104 74.3035 12.7758C74.2516 13.5413 73.992 14.2224 73.7187 14.741ZM76.9352 9.99833C77.1671 9.99833 77.3896 9.89299 77.5536 9.7055C77.7175 9.518 77.8097 9.26371 77.8097 8.99855C77.8097 8.73339 77.7175 8.4791 77.5536 8.2916C77.3896 8.10411 77.1671 7.99877 76.9352 7.99877C76.7033 7.99877 76.4808 8.10411 76.3168 8.2916C76.1528 8.4791 76.0607 8.73339 76.0607 8.99855C76.0607 9.26371 76.1528 9.518 76.3168 9.7055C76.4808 9.89299 76.7033 9.99833 76.9352 9.99833ZM80.8704 8.99855C80.8704 8.73339 80.7783 8.4791 80.6143 8.2916C80.4503 8.10411 80.2278 7.99877 79.9959 7.99877C79.764 7.99877 79.5415 8.10411 79.3775 8.2916C79.2135 8.4791 79.1214 8.73339 79.1214 8.99855C79.1214 9.26371 79.2135 9.518 79.3775 9.7055C79.5415 9.89299 79.764 9.99833 79.9959 9.99833C80.2278 9.99833 80.4503 9.89299 80.6143 9.7055C80.7783 9.518 80.8704 9.26371 80.8704 8.99855ZM83.0566 9.99833C83.2885 9.99833 83.511 9.89299 83.675 9.7055C83.839 9.518 83.9311 9.26371 83.9311 8.99855C83.9311 8.73339 83.839 8.4791 83.675 8.2916C83.511 8.10411 83.2885 7.99877 83.0566 7.99877C82.8247 7.99877 82.6023 8.10411 82.4383 8.2916C82.2743 8.4791 82.1821 8.73339 82.1821 8.99855C82.1821 9.26371 82.2743 9.518 82.4383 9.7055C82.6023 9.89299 82.8247 9.99833 83.0566 9.99833Z" fill="#999999"/>
</svg>
