<svg width="125" height="30" viewBox="0 0 125 30" fill="none" xmlns="http://www.w3.org/2000/svg">
<path d="M46.5613 15.7429C45.5171 15.7476 44.5839 16.3143 43.9596 17.2042L43.9554 17.2104L36.8093 12.9161C36.867 12.6422 36.9001 12.3277 36.9001 12.004C36.9001 11.6803 36.867 11.3658 36.8046 11.0653L36.8093 11.0919L43.9557 6.79806C44.5862 7.67071 45.5109 8.21935 46.5422 8.21935C48.4308 8.21935 49.9619 6.37939 49.9619 4.10965C49.9619 1.83991 48.4308 0 46.5422 0C44.6535 0 43.1225 1.83996 43.1225 4.10965C43.1225 4.11767 43.1225 4.12571 43.1225 4.13376V4.1325C43.1244 4.45701 43.1574 4.77113 43.2179 5.07228L43.2132 5.04424L36.0666 9.33814C35.4317 8.43843 34.4904 7.87121 33.4389 7.87121C31.5396 7.87121 30 9.7215 30 12.0039C30 14.2863 31.5397 16.1366 33.4389 16.1366C34.4906 16.1366 35.432 15.5692 36.0628 14.6752L36.0669 14.6692L43.2133 18.963C43.1598 19.236 43.1291 19.5494 43.1291 19.8714C43.1291 22.1516 44.6672 24 46.5645 24C48.4619 24 50 22.1516 50 19.8714C50 17.5914 48.4619 15.7429 46.5645 15.7429H46.5611H46.5613ZM46.5613 1.96785C47.556 1.96785 48.3625 2.93702 48.3625 4.1325C48.3625 5.32798 47.556 6.29716 46.5613 6.29716C45.5665 6.29716 44.76 5.32798 44.76 4.1325C44.7613 2.93761 45.567 1.96937 46.5611 1.96785H46.5613ZM33.4613 14.1686C32.4665 14.1686 31.6601 13.1995 31.6601 12.004C31.6601 10.8085 32.4665 9.83933 33.4613 9.83933C34.4561 9.83933 35.2625 10.8085 35.2625 12.004C35.2615 13.199 34.4557 14.1674 33.4614 14.1686H33.4613ZM46.5613 22.0401C45.5665 22.0401 44.76 21.0709 44.76 19.8755C44.76 18.68 45.5665 17.7108 46.5613 17.7108C47.556 17.7108 48.3625 18.68 48.3625 19.8755C48.361 21.0703 47.5555 22.0383 46.5614 22.0401H46.5613Z" fill="black"/>
<path d="M0 2.25022C0 1.00791 1.11979 0 2.5 0V2.25022V20.6926L9.27604 16.3375C9.70833 16.0562 10.2969 16.0562 10.7292 16.3375L17.5 20.6926V2.25022H2.5V0H17.5C18.8802 0 20 1.00791 20 2.25022V22.8772C20 23.2991 19.7396 23.6835 19.3229 23.8757C18.9062 24.068 18.4062 24.0351 18.026 23.7914L10 18.6346L1.97396 23.7914C1.59375 24.0351 1.09375 24.068 0.677083 23.8757C0.260417 23.6835 0 23.2991 0 22.8772V2.25022Z" fill="black"/>
<path d="M62.5 17.7778C61.837 17.7778 61.2011 18.1056 60.7322 18.689C60.2634 19.2724 60 20.0638 60 20.8889C60 21.714 60.2634 22.5053 60.7322 23.0888C61.2011 23.6722 61.837 24 62.5 24C63.163 24 63.7989 23.6722 64.2678 23.0888C64.7366 22.5053 65 21.714 65 20.8889C65 20.0638 64.7366 19.2724 64.2678 18.689C63.7989 18.1056 63.163 17.7778 62.5 17.7778ZM62.5 8.88889C61.837 8.88889 61.2011 9.21667 60.7322 9.80011C60.2634 10.3836 60 11.1749 60 12C60 12.8251 60.2634 13.6164 60.7322 14.1999C61.2011 14.7833 61.837 15.1111 62.5 15.1111C63.163 15.1111 63.7989 14.7833 64.2678 14.1999C64.7366 13.6164 65 12.8251 65 12C65 11.1749 64.7366 10.3836 64.2678 9.80011C63.7989 9.21667 63.163 8.88889 62.5 8.88889ZM65 3.11111C65 2.28599 64.7366 1.49467 64.2678 0.911223C63.7989 0.327777 63.163 0 62.5 0C61.837 0 61.2011 0.327777 60.7322 0.911223C60.2634 1.49467 60 2.28599 60 3.11111C60 3.93623 60.2634 4.72755 60.7322 5.311C61.2011 5.89445 61.837 6.22222 62.5 6.22222C63.163 6.22222 63.7989 5.89445 64.2678 5.311C64.7366 4.72755 65 3.93623 65 3.11111Z" fill="black"/>
<path d="M124.266 16.3243C125.242 15.5918 125.242 14.4024 124.266 13.67L114.266 6.16996C113.547 5.6309 112.477 5.4727 111.539 5.76567C110.602 6.05863 109.992 6.73832 109.992 7.50004V22.5C109.992 23.2559 110.602 23.9414 111.539 24.2344C112.477 24.5274 113.547 24.3633 114.266 23.8301L124.266 16.3301V16.3243Z" fill="black"/>
<path d="M75.7344 16.3243C74.7578 15.5918 74.7578 14.4024 75.7344 13.67L85.7344 6.16996C86.4531 5.6309 87.5234 5.4727 88.4609 5.76567C89.3984 6.05863 90.0078 6.73832 90.0078 7.50004V22.5C90.0078 23.2559 89.3984 23.9414 88.4609 24.2344C87.5234 24.5274 86.4531 24.3633 85.7344 23.8301L75.7344 16.3301V16.3243Z" fill="black"/>
</svg>
