<svg width="95" height="18" viewBox="0 0 95 18" fill="none" xmlns="http://www.w3.org/2000/svg">
<path d="M1 9C1 9 3.4 3 9 3C14.6 3 17 9 17 9C17 9 14.6 15 9 15C3.4 15 1 9 1 9Z" stroke="black" stroke-width="1.2" stroke-linecap="round" stroke-linejoin="round"/>
<path d="M9.0001 11.5713C10.3256 11.5713 11.4001 10.4201 11.4001 8.9999C11.4001 7.57973 10.3256 6.42847 9.0001 6.42847C7.67461 6.42847 6.6001 7.57973 6.6001 8.9999C6.6001 10.4201 7.67461 11.5713 9.0001 11.5713Z" stroke="black" stroke-width="1.2" stroke-linecap="round" stroke-linejoin="round"/>
<path d="M36.8571 3H23.1429C22.8398 3 22.5491 3.12643 22.3347 3.35147C22.1204 3.57652 22 3.88174 22 4.2V13.8C22 14.1183 22.1204 14.4235 22.3347 14.6485C22.5491 14.8736 22.8398 15 23.1429 15H36.8571C37.1602 15 37.4509 14.8736 37.6653 14.6485C37.8796 14.4235 38 14.1183 38 13.8V4.2C38 3.88174 37.8796 3.57652 37.6653 3.35147C37.4509 3.12643 37.1602 3 36.8571 3ZM36.8571 4.2V6H23.1429V4.2H36.8571ZM36.8571 13.8H23.1429V7.2H36.8571V13.8ZM35.7143 12C35.7143 12.1591 35.6541 12.3117 35.5469 12.4243C35.4398 12.5368 35.2944 12.6 35.1429 12.6H32.8571C32.7056 12.6 32.5602 12.5368 32.4531 12.4243C32.3459 12.3117 32.2857 12.1591 32.2857 12C32.2857 11.8409 32.3459 11.6883 32.4531 11.5757C32.5602 11.4632 32.7056 11.4 32.8571 11.4H35.1429C35.2944 11.4 35.4398 11.4632 35.5469 11.5757C35.6541 11.6883 35.7143 11.8409 35.7143 12ZM31.1429 12C31.1429 12.1591 31.0827 12.3117 30.9755 12.4243C30.8683 12.5368 30.723 12.6 30.5714 12.6H29.4286C29.277 12.6 29.1317 12.5368 29.0245 12.4243C28.9173 12.3117 28.8571 12.1591 28.8571 12C28.8571 11.8409 28.9173 11.6883 29.0245 11.5757C29.1317 11.4632 29.277 11.4 29.4286 11.4H30.5714C30.723 11.4 30.8683 11.4632 30.9755 11.5757C31.0827 11.6883 31.1429 11.8409 31.1429 12Z" fill="black"/>
<path d="M56.6 10.5556C57.792 9.42 59 8.05889 59 6.27778C59 5.14324 58.5364 4.05517 57.7113 3.25293C56.8861 2.45069 55.767 2 54.6 2C53.192 2 52.2 2.38889 51 3.55556C49.8 2.38889 48.808 2 47.4 2C46.233 2 45.1139 2.45069 44.2887 3.25293C43.4636 4.05517 43 5.14324 43 6.27778C43 8.06667 44.2 9.42778 45.4 10.5556L51 16L56.6 10.5556Z" stroke="black" stroke-width="1.2" stroke-linecap="round" stroke-linejoin="round"/>
<path d="M66.7857 10.1778H73.9394M66.7857 7.68894H73.9394M66.7857 5.20005H71.236M66.7856 12.832H73.9394M64 15.2223C64 15.6938 64.1957 16.146 64.5439 16.4794C64.8922 16.8128 65.3646 17.0001 65.8571 17.0001H75.1429C75.6354 17.0001 76.1078 16.8128 76.4561 16.4794C76.8043 16.146 77 15.6938 77 15.2223V2.77783C77 2.30634 76.8043 1.85415 76.4561 1.52075C76.1078 1.18735 75.6354 1.00005 75.1429 1.00005H70.5H65.8571C65.3646 1.00005 64.8922 1.18735 64.5439 1.52075C64.1957 1.85415 64 2.30634 64 2.77783V15.2223Z" stroke="black" stroke-width="1.2" stroke-linecap="round" stroke-linejoin="round"/>
<path d="M94.4091 1H84.3636C83.7368 1 83.1356 1.25934 82.6923 1.72097C82.249 2.1826 82 2.8087 82 3.46154V16.3846C82 16.5478 82.0623 16.7044 82.1731 16.8198C82.2839 16.9352 82.4342 17 82.5909 17H93.2273C93.384 17 93.5343 16.9352 93.6451 16.8198C93.7559 16.7044 93.8182 16.5478 93.8182 16.3846C93.8182 16.2214 93.7559 16.0649 93.6451 15.9495C93.5343 15.8341 93.384 15.7692 93.2273 15.7692H83.1818C83.1818 15.4428 83.3063 15.1298 83.528 14.8989C83.7496 14.6681 84.0502 14.5385 84.3636 14.5385H94.4091C94.5658 14.5385 94.7161 14.4736 94.8269 14.3582C94.9377 14.2428 95 14.0863 95 13.9231V1.61538C95 1.45217 94.9377 1.29565 94.8269 1.18024C94.7161 1.06483 94.5658 1 94.4091 1ZM93.8182 13.3077H84.3636C83.9486 13.3071 83.5409 13.421 83.1818 13.6377V3.46154C83.1818 3.13512 83.3063 2.82207 83.528 2.59125C83.7496 2.36044 84.0502 2.23077 84.3636 2.23077H93.8182V13.3077Z" fill="black"/>
<path d="M93.3455 16.2615L94.2896 14.2927" stroke="black" stroke-linecap="round"/>
</svg>
