<svg width="80" height="28" viewBox="0 0 80 28" fill="none" xmlns="http://www.w3.org/2000/svg">
<path d="M5.39485 17.3118C5.72955 17.7024 6.27312 17.7024 6.60783 17.3118L11.749 11.313C12.0837 10.9224 12.0837 10.2882 11.749 9.89765C11.4143 9.5071 10.8707 9.5071 10.536 9.89765L6 15.1904L1.46402 9.90077C1.12931 9.51022 0.585741 9.51022 0.251032 9.90077C-0.0836773 10.2913 -0.0836773 10.9256 0.251032 11.3161L5.39217 17.3149L5.39485 17.3118Z" fill="#333333"/>
<path fill-rule="evenodd" clip-rule="evenodd" d="M31 4.60474C26.0295 4.60474 22 8.63422 22 13.6047C22 18.5752 26.0295 22.6047 31 22.6047C35.9705 22.6047 40 18.5752 40 13.6047C40 8.63422 35.9705 4.60474 31 4.60474ZM31.6279 10.2559C31.6279 10.0894 31.5618 9.92966 31.444 9.8119C31.3262 9.69415 31.1665 9.62799 31 9.62799C30.8335 9.62799 30.6738 9.69415 30.556 9.8119C30.4382 9.92966 30.3721 10.0894 30.3721 10.2559V12.9768H27.6512C27.4846 12.9768 27.3249 13.043 27.2072 13.1607C27.0894 13.2785 27.0233 13.4382 27.0233 13.6047C27.0233 13.7713 27.0894 13.931 27.2072 14.0487C27.3249 14.1665 27.4846 14.2326 27.6512 14.2326H30.3721V16.9536C30.3721 17.1201 30.4382 17.2798 30.556 17.3976C30.6738 17.5153 30.8335 17.5815 31 17.5815C31.1665 17.5815 31.3262 17.5153 31.444 17.3976C31.5618 17.2798 31.6279 17.1201 31.6279 16.9536V14.2326H34.3488C34.5154 14.2326 34.6751 14.1665 34.7928 14.0487C34.9106 13.931 34.9767 13.7713 34.9767 13.6047C34.9767 13.4382 34.9106 13.2785 34.7928 13.1607C34.6751 13.043 34.5154 12.9768 34.3488 12.9768H31.6279V10.2559Z" fill="#EA6231"/>
<path fill-rule="evenodd" clip-rule="evenodd" d="M58.8577 3.1214C59.2302 1.29349 60.8572 0 62.72 0H67.28C69.1428 0 70.7684 1.29349 71.1423 3.1214C71.1835 3.32268 71.2913 3.50424 71.4482 3.63686C71.6051 3.76949 71.8021 3.84546 72.0074 3.85256H72.0535C74.0112 3.93907 75.5153 4.17907 76.7712 5.00372C77.5623 5.52279 78.2433 6.18977 78.7735 6.96977C79.4335 7.93814 79.7237 9.05163 79.8633 10.3967C80 11.7126 80 13.3605 80 15.4479V15.5665C80 17.654 80 19.3033 79.8633 20.6177C79.7237 21.9628 79.4335 23.0763 78.7735 24.046C78.2416 24.8265 77.5612 25.4946 76.7712 26.0121C75.7902 26.6553 74.6642 26.94 73.2995 27.0753C71.9628 27.2093 70.287 27.2093 68.1577 27.2093H61.8423C59.713 27.2093 58.0372 27.2093 56.7005 27.0753C55.3358 26.94 54.2098 26.6567 53.2288 26.0121C52.4387 25.4941 51.7583 24.8256 51.2265 24.0447C50.5665 23.0763 50.2763 21.9628 50.1367 20.6177C50 19.3033 50 17.654 50 15.5665V15.4479C50 13.3605 50 11.7126 50.1367 10.3967C50.2763 9.05163 50.5665 7.93814 51.2265 6.96977C51.7583 6.18882 52.4387 5.52027 53.2288 5.00233C54.4847 4.17907 55.9888 3.93907 57.9465 3.85395L57.9702 3.85256H57.9926C58.1979 3.84546 58.3949 3.76949 58.5518 3.63686C58.7087 3.50424 58.8165 3.32268 58.8577 3.1214ZM62.72 2.09302C61.827 2.09302 61.0777 2.71116 60.9088 3.5386C60.6367 4.87814 59.4479 5.93302 58.0177 5.94558C56.1367 6.0293 55.1293 6.25954 54.3758 6.75349C53.8161 7.12078 53.334 7.59439 52.9567 8.14744C52.5716 8.71256 52.34 9.43674 52.2172 10.613C52.0944 11.8074 52.093 13.3479 52.093 15.5079C52.093 17.6679 52.093 19.207 52.2186 20.4014C52.34 21.5777 52.5716 22.3019 52.9581 22.8684C53.3321 23.4181 53.8135 23.8926 54.3772 24.2623C54.9591 24.6433 55.7042 24.8735 56.9084 24.9935C58.1279 25.1149 59.6991 25.1163 61.8995 25.1163H68.1005C70.2995 25.1163 71.8707 25.1163 73.0916 24.9935C74.2958 24.8735 75.0409 24.6447 75.6228 24.2623C76.1865 23.8926 76.6693 23.4181 77.0433 22.867C77.4284 22.3019 77.66 21.5777 77.7828 20.4014C77.9056 19.207 77.907 17.6665 77.907 15.5079C77.907 13.3479 77.907 11.8074 77.7814 10.613C77.66 9.43674 77.4284 8.71256 77.0419 8.14744C76.6651 7.59365 76.1829 7.11951 75.6228 6.75209C74.8721 6.25954 73.8647 6.0293 71.9809 5.94558C70.5521 5.93163 69.3633 4.87953 69.0912 3.5386C69.0019 3.12596 68.7729 2.75678 68.4429 2.49341C68.1129 2.23003 67.7022 2.08861 67.28 2.09302H62.72ZM65 11.8605C64.1673 11.8605 63.3688 12.1912 62.78 12.78C62.1912 13.3688 61.8605 14.1673 61.8605 15C61.8605 15.8327 62.1912 16.6312 62.78 17.22C63.3688 17.8088 64.1673 18.1395 65 18.1395C65.8327 18.1395 66.6312 17.8088 67.22 17.22C67.8088 16.6312 68.1395 15.8327 68.1395 15C68.1395 14.1673 67.8088 13.3688 67.22 12.78C66.6312 12.1912 65.8327 11.8605 65 11.8605ZM59.7674 15C59.7674 13.6122 60.3187 12.2813 61.3 11.3C62.2813 10.3187 63.6122 9.76744 65 9.76744C66.3878 9.76744 67.7187 10.3187 68.7 11.3C69.6813 12.2813 70.2326 13.6122 70.2326 15C70.2326 16.3878 69.6813 17.7187 68.7 18.7C67.7187 19.6813 66.3878 20.2326 65 20.2326C63.6122 20.2326 62.2813 19.6813 61.3 18.7C60.3187 17.7187 59.7674 16.3878 59.7674 15ZM72.3256 10.814C72.3256 10.5364 72.4358 10.2702 72.6321 10.074C72.8284 9.8777 73.0945 9.76744 73.3721 9.76744H74.7674C75.045 9.76744 75.3112 9.8777 75.5074 10.074C75.7037 10.2702 75.814 10.5364 75.814 10.814C75.814 11.0915 75.7037 11.3577 75.5074 11.5539C75.3112 11.7502 75.045 11.8605 74.7674 11.8605H73.3721C73.0945 11.8605 72.8284 11.7502 72.6321 11.5539C72.4358 11.3577 72.3256 11.0915 72.3256 10.814Z" fill="#666666"/>
</svg>
