<svg width="43" height="18" viewBox="0 0 43 18" fill="none" xmlns="http://www.w3.org/2000/svg">
<path d="M41.8541 8.23787L38.1035 11.4742L39.2462 16.3142C39.3093 16.5769 39.293 16.8524 39.1996 17.1059C39.1061 17.3595 38.9396 17.5796 38.7211 17.7385C38.5026 17.8975 38.2419 17.9881 37.9719 17.9989C37.7019 18.0097 37.4348 17.9403 37.2042 17.7994L32.9952 15.209L28.7837 17.7994C28.5532 17.9395 28.2864 18.0083 28.0169 17.997C27.7474 17.9858 27.4872 17.8951 27.2691 17.7363C27.0511 17.5775 26.8849 17.3577 26.7915 17.1047C26.6981 16.8516 26.6816 16.5766 26.7442 16.3142L27.8911 11.4742L24.1405 8.23787C23.9365 8.0616 23.789 7.82915 23.7164 7.56955C23.6438 7.30995 23.6492 7.03471 23.7321 6.7782C23.8149 6.52168 23.9715 6.29526 24.1823 6.12722C24.3931 5.95918 24.6487 5.85695 24.9173 5.83332L29.8347 5.43659L31.7317 0.845853C31.8344 0.595661 32.0091 0.381652 32.2337 0.231036C32.4584 0.0804203 32.7227 0 32.9931 0C33.2636 0 33.5279 0.0804203 33.7525 0.231036C33.9771 0.381652 34.1519 0.595661 34.2546 0.845853L36.1507 5.43659L41.0682 5.83332C41.3372 5.85608 41.5936 5.95773 41.8052 6.12554C42.0167 6.29335 42.174 6.51986 42.2574 6.77668C42.3408 7.03351 42.3465 7.30923 42.2739 7.56931C42.2013 7.82938 42.0535 8.06224 41.8491 8.23871L41.8541 8.23787Z" fill="#FFB600"/>
<path d="M18.5979 6.77162C18.5146 6.51539 18.3573 6.28956 18.1458 6.12258C17.9343 5.9556 17.6782 5.85494 17.4096 5.83328L12.4929 5.43661L10.5945 0.845726C10.4919 0.595572 10.3171 0.381595 10.0925 0.231002C9.86795 0.0804082 9.60366 0 9.33325 0C9.06285 0 8.79856 0.0804082 8.57397 0.231002C8.34939 0.381595 8.17466 0.595572 8.07199 0.845726L6.1753 5.43578L1.25609 5.83328C0.987063 5.85603 0.730737 5.95767 0.519223 6.12545C0.307708 6.29324 0.150411 6.51971 0.0670395 6.7765C-0.016332 7.03329 -0.0220702 7.30897 0.0505436 7.569C0.123157 7.82904 0.270894 8.06186 0.475243 8.23831L4.22528 11.4742L3.08277 16.3126C3.01887 16.5754 3.03452 16.8513 3.12772 17.1053C3.22092 17.3592 3.38748 17.5798 3.60624 17.7389C3.82501 17.898 4.08612 17.9885 4.35643 17.999C4.62674 18.0094 4.89406 17.9393 5.12446 17.7976L9.33284 15.2075L13.5437 17.7976C13.7742 17.9376 14.041 18.0064 14.3104 17.9952C14.5799 17.9839 14.84 17.8932 15.0581 17.7344C15.2761 17.5757 15.4423 17.3559 15.5357 17.1029C15.629 16.8499 15.6455 16.5749 15.5829 16.3126L14.4362 11.4733L18.1863 8.23747C18.3923 8.06132 18.5414 7.828 18.6146 7.56705C18.6879 7.3061 18.6821 7.02927 18.5979 6.77162ZM17.3196 7.22746L13.2612 10.7275C13.1687 10.8073 13.0998 10.9109 13.0622 11.0272C13.0246 11.1434 13.0196 11.2678 13.0479 11.3867L14.2879 16.6201C14.2911 16.6273 14.2914 16.6354 14.2888 16.6429C14.2861 16.6503 14.2808 16.6565 14.2737 16.6601C14.2587 16.6717 14.2546 16.6692 14.2421 16.6601L9.68201 13.8559C9.57699 13.7913 9.45612 13.7571 9.33284 13.7571C9.20956 13.7571 9.08869 13.7913 8.98367 13.8559L4.42362 16.6617C4.41112 16.6692 4.40779 16.6717 4.39195 16.6617C4.38492 16.6581 4.37953 16.652 4.37689 16.6446C4.37426 16.6371 4.37458 16.6289 4.37779 16.6217L5.6178 11.3883C5.64606 11.2695 5.64111 11.1451 5.60348 11.0289C5.56586 10.9126 5.49701 10.8089 5.40446 10.7292L1.34609 7.22913C1.33609 7.22079 1.32692 7.21329 1.33525 7.18746C1.34359 7.16163 1.35025 7.16496 1.36275 7.16329L6.68948 6.73329C6.81165 6.72281 6.92857 6.67884 7.02737 6.60621C7.12617 6.53358 7.20303 6.4351 7.24948 6.32162L9.30117 1.35407C9.30784 1.3399 9.31034 1.33323 9.33034 1.33323C9.35034 1.33323 9.35284 1.3399 9.35951 1.35407L11.4162 6.32162C11.4631 6.43515 11.5404 6.53351 11.6397 6.60586C11.7389 6.67821 11.8563 6.72173 11.9787 6.73162L17.3054 7.16163C17.3179 7.16163 17.3254 7.16163 17.3329 7.18579C17.3404 7.20996 17.3329 7.21913 17.3196 7.22746Z" fill="#FFB600"/>
</svg>
