<svg width="114" height="12" viewBox="0 0 114 12" fill="none" xmlns="http://www.w3.org/2000/svg">
<rect y="5.5" width="10" height="1" fill="#999999"/>
<path d="M21.5 1L28 11H15L21.5 1Z" fill="#12C39A"/>
<path d="M39.5 11L33 1L46 1L39.5 11Z" fill="#EA6231"/>
<mask id="mask0_1726_1855" style="mask-type:luminance" maskUnits="userSpaceOnUse" x="50" y="0" width="12" height="12">
<path d="M56 11C58.7615 11 61 8.7615 61 6C61 3.2385 58.7615 1 56 1C53.2385 1 51 3.2385 51 6C51 8.7615 53.2385 11 56 11Z" fill="white" stroke="white" stroke-width="1.66667" stroke-linejoin="round"/>
<path d="M57.4144 4.58594L54.5859 7.41444M54.5859 4.58594L57.4144 7.41444" stroke="black" stroke-width="1.66667" stroke-linecap="round" stroke-linejoin="round"/>
</mask>
<g mask="url(#mask0_1726_1855)">
<path d="M50 0H62V12H50V0Z" fill="#999999"/>
</g>
<path fill-rule="evenodd" clip-rule="evenodd" d="M71.4 9H72.6V5.4H71.4V9ZM72 0C68.7 0 66 2.7 66 6C66 9.3 68.7 12 72 12C75.3 12 78 9.3 78 6C78 2.7 75.3 0 72 0ZM72 10.8C69.36 10.8 67.2 8.64 67.2 6C67.2 3.36 69.36 1.2 72 1.2C74.64 1.2 76.8 3.36 76.8 6C76.8 8.64 74.64 10.8 72 10.8ZM71.4 4.2H72.6V3H71.4V4.2Z" fill="#999999"/>
<path d="M90.6995 0.0024456C89.8973 -0.0204623 89.0987 0.117757 88.3509 0.408926C87.6031 0.700094 86.9213 1.1383 86.3458 1.69761C85.7703 2.25691 85.3129 2.92597 85.0006 3.66518C84.6882 4.40439 84.5273 5.19873 84.5274 6.00122H83.3343C83.0343 6.00122 82.8877 6.36115 83.101 6.56777L84.9606 8.42739C85.0939 8.5607 85.3006 8.5607 85.4339 8.42739L87.3001 6.56777C87.5001 6.36115 87.3535 6.00122 87.0535 6.00122H85.8604C85.8604 3.40842 87.9933 1.29552 90.5928 1.33551C93.0656 1.36883 95.1519 3.45507 95.1919 5.93457C95.2319 8.5407 93.1256 10.6669 90.5262 10.6669C89.4664 10.6669 88.4932 10.3137 87.7067 9.7138C87.4401 9.51384 87.0669 9.53383 86.8336 9.77379C86.547 10.0604 86.5736 10.5336 86.8936 10.7736C87.937 11.57 89.2135 12.001 90.5262 12C93.8988 12 96.6182 9.22057 96.5249 5.83459C96.4383 2.7019 93.8255 0.0890946 90.6995 0.0024456Z" fill="#999999"/>
<path d="M111.464 7.87147C110.838 7.87378 110.278 8.15713 109.903 8.6021L109.901 8.60518L105.613 6.45807C105.648 6.32111 105.667 6.16387 105.667 6.00202C105.667 5.84016 105.648 5.68291 105.61 5.53264L105.613 5.54595L109.901 3.39903C110.279 3.83535 110.834 4.10968 111.453 4.10968C112.586 4.10968 113.504 3.1897 113.504 2.05483C113.504 0.919955 112.586 0 111.453 0C110.319 0 109.401 0.91998 109.401 2.05483C109.401 2.05884 109.401 2.06286 109.401 2.06688C109.402 2.22913 109.422 2.38556 109.458 2.53614L109.455 2.52212L105.167 4.66907C104.786 4.21921 104.222 3.9356 103.591 3.9356C102.451 3.9356 101.527 4.86075 101.527 6.00194C101.527 7.14314 102.451 8.06828 103.591 8.06828C104.222 8.06828 104.787 7.78459 105.165 7.33759L105.168 7.33461L109.455 9.48149C109.423 9.61798 109.405 9.77471 109.405 9.9357C109.405 11.0758 110.328 12 111.466 12C112.604 12 113.527 11.0758 113.527 9.93572C113.527 8.79569 112.604 7.87147 111.466 7.87147H111.464ZM111.464 0.983923C112.061 0.983923 112.545 1.46851 112.545 2.06625C112.545 2.66399 112.061 3.14858 111.464 3.14858C110.867 3.14858 110.383 2.66399 110.383 2.06625C110.384 1.46881 110.868 0.984685 111.464 0.983923ZM103.604 7.08432C103.007 7.08432 102.523 6.59973 102.523 6.00199C102.523 5.40425 103.007 4.91966 103.604 4.91966C104.201 4.91966 104.685 5.40425 104.685 6.00199C104.684 6.59949 104.201 7.08371 103.604 7.08432ZM111.464 11.0201C110.867 11.0201 110.383 10.5355 110.383 9.93773C110.383 9.33999 110.867 8.8554 111.464 8.8554C112.061 8.8554 112.545 9.33999 112.545 9.93773C112.544 10.5351 112.061 11.0192 111.464 11.0201Z" fill="#333333"/>
</svg>
