<svg width="89" height="52" viewBox="0 0 89 52" fill="none" xmlns="http://www.w3.org/2000/svg">
<path d="M19 18.25V11.261C19 10.1294 19 9.56367 18.8559 9.04144C18.7282 8.5788 18.5184 8.14291 18.2363 7.75462C17.9179 7.3163 17.4757 6.96349 16.5911 6.25786L16.5911 6.25785L13.9911 4.18378C12.5664 3.04726 11.854 2.47901 11.0644 2.26102C10.3678 2.06874 9.63218 2.06874 8.93562 2.26102C8.14596 2.47901 7.43361 3.04726 6.00891 4.18378L3.40891 6.25785L3.40891 6.25785C2.52435 6.96349 2.08207 7.3163 1.76368 7.75462C1.48163 8.14291 1.27176 8.5788 1.1441 9.04144C1 9.56367 1 10.1294 1 11.261V18.25C1 18.9478 1 19.2967 1.08612 19.5806C1.28002 20.2198 1.78023 20.72 2.41943 20.9139C2.70333 21 3.05222 21 3.75 21H4.32051C4.48718 21 4.57051 21 4.64085 20.995C5.63439 20.9249 6.42489 20.1344 6.49503 19.1409C6.5 19.0705 6.5 18.9872 6.5 18.8205V15.7821C6.5 13.8491 8.067 12.2821 10 12.2821C11.933 12.2821 13.5 13.8491 13.5 15.782V18.8205C13.5 18.9872 13.5 19.0705 13.505 19.1409C13.5751 20.1344 14.3656 20.9249 15.3591 20.995C15.4295 21 15.5128 21 15.6795 21H16.25C16.9478 21 17.2967 21 17.5806 20.9139C18.2198 20.72 18.72 20.2198 18.9139 19.5806C19 19.2967 19 18.9478 19 18.25Z" stroke="#878787" stroke-width="1.8"/>
<path d="M42 20L36.4832 14.4832M36.4832 14.4832C37.8065 13.1599 38.625 11.3318 38.625 9.3125C38.625 5.27392 35.3511 2 31.3125 2C27.2739 2 24 5.27392 24 9.3125C24 13.3511 27.2739 16.625 31.3125 16.625C33.3318 16.625 35.1599 15.8065 36.4832 14.4832Z" stroke="#878787" stroke-width="1.8" stroke-linecap="round" stroke-linejoin="round"/>
<path d="M49 2.84127C48.725 2.84127 48.5 3.18413 48.5 3.60317V18.8413C48.5 19.2603 48.725 19.6032 49 19.6032H63C63.275 19.6032 63.5 19.2603 63.5 18.8413V3.60317C63.5 3.18413 63.275 2.84127 63 2.84127H49ZM47 3.60317C47 1.92222 47.8969 1 49 1H63C64.1031 1 65 1.92222 65 3.60317V18.8413C65 20.5222 64.1031 21 63 21H49C47.8969 21 47 20.5222 47 18.8413V3.60317Z" fill="#878787"/>
<circle cx="51" cy="6" r="1" fill="#878787"/>
<rect x="54" y="5" width="8" height="2" rx="1" fill="#878787"/>
<circle cx="51" cy="11" r="1" fill="#878787"/>
<rect x="54" y="10" width="8" height="2" rx="1" fill="#878787"/>
<circle cx="51" cy="16" r="1" fill="#878787"/>
<rect x="54" y="15" width="8" height="2" rx="1" fill="#878787"/>
<path d="M88 18.3184C88 21.884 83.5 20.8653 79 20.8653C74.5 20.8653 70 21.884 70 18.3184C70 16.281 74.0294 13.7341 79 13.7341C83.9706 13.7341 88 16.281 88 18.3184Z" stroke="#878787" stroke-width="1.8"/>
<ellipse cx="79" cy="5.5843" rx="4.5" ry="4.5843" stroke="#878787" stroke-width="1.8"/>
<path d="M19 48.25V41.261C19 40.1294 19 39.5637 18.8559 39.0414C18.7282 38.5788 18.5184 38.1429 18.2363 37.7546C17.9179 37.3163 17.4757 36.9635 16.5911 36.2579L16.5911 36.2579L13.9911 34.1838C12.5664 33.0473 11.854 32.479 11.0644 32.261C10.3678 32.0687 9.63218 32.0687 8.93562 32.261C8.14596 32.479 7.43361 33.0473 6.00891 34.1838L3.40891 36.2579L3.40891 36.2579C2.52435 36.9635 2.08207 37.3163 1.76368 37.7546C1.48163 38.1429 1.27176 38.5788 1.1441 39.0414C1 39.5637 1 40.1294 1 41.261V48.25C1 48.9478 1 49.2967 1.08612 49.5806C1.28002 50.2198 1.78023 50.72 2.41943 50.9139C2.70333 51 3.05222 51 3.75 51H4.32051C4.48718 51 4.57051 51 4.64085 50.995C5.63439 50.9249 6.42489 50.1344 6.49503 49.1409C6.5 49.0705 6.5 48.9872 6.5 48.8205V45.7821C6.5 43.8491 8.067 42.2821 10 42.2821C11.933 42.2821 13.5 43.8491 13.5 45.782V48.8205C13.5 48.9872 13.5 49.0705 13.505 49.1409C13.5751 50.1344 14.3656 50.9249 15.3591 50.995C15.4295 51 15.5128 51 15.6795 51H16.25C16.9478 51 17.2967 51 17.5806 50.9139C18.2198 50.72 18.72 50.2198 18.9139 49.5806C19 49.2967 19 48.9478 19 48.25Z" stroke="#333333" stroke-width="1.8"/>
<path d="M42 50L36.4832 44.4832M36.4832 44.4832C37.8065 43.1599 38.625 41.3318 38.625 39.3125C38.625 35.2739 35.3511 32 31.3125 32C27.2739 32 24 35.2739 24 39.3125C24 43.3511 27.2739 46.625 31.3125 46.625C33.3318 46.625 35.1599 45.8065 36.4832 44.4832Z" stroke="#333333" stroke-width="1.8" stroke-linecap="round" stroke-linejoin="round"/>
<path d="M49 32.8413C48.725 32.8413 48.5 33.1841 48.5 33.6032V48.8413C48.5 49.2603 48.725 49.6032 49 49.6032H63C63.275 49.6032 63.5 49.2603 63.5 48.8413V33.6032C63.5 33.1841 63.275 32.8413 63 32.8413H49ZM47 33.6032C47 31.9222 47.8969 31 49 31H63C64.1031 31 65 31.9222 65 33.6032V48.8413C65 50.5222 64.1031 51 63 51H49C47.8969 51 47 50.5222 47 48.8413V33.6032Z" fill="#333333"/>
<circle cx="51" cy="36" r="1" fill="#333333"/>
<rect x="54" y="35" width="8" height="2" rx="1" fill="#333333"/>
<circle cx="51" cy="41" r="1" fill="#333333"/>
<rect x="54" y="40" width="8" height="2" rx="1" fill="#333333"/>
<circle cx="51" cy="46" r="1" fill="#333333"/>
<rect x="54" y="45" width="8" height="2" rx="1" fill="#333333"/>
<path d="M88 48.3184C88 51.884 83.5 50.8653 79 50.8653C74.5 50.8653 70 51.884 70 48.3184C70 46.281 74.0294 43.7341 79 43.7341C83.9706 43.7341 88 46.281 88 48.3184Z" stroke="#333333" stroke-width="1.8"/>
<ellipse cx="79" cy="35.5843" rx="4.5" ry="4.5843" stroke="#333333" stroke-width="1.8"/>
</svg>
